<?xml version="1.0" standalone="no"?>
<!DOCTYPE svg PUBLIC "-//W3C//DTD SVG 20010904//EN"
 "http://www.w3.org/TR/2001/REC-SVG-20010904/DTD/svg10.dtd">
<svg version="1.0" xmlns="http://www.w3.org/2000/svg"
 width="1280.000000pt" height="1212.000000pt" viewBox="0 0 1280.000000 1212.000000"
 preserveAspectRatio="xMidYMid meet">
<metadata>
Created by potrace 1.15, written by Peter Selinger 2001-2017
</metadata>
<g transform="translate(0.000000,1212.000000) scale(0.100000,-0.100000)"
fill="#f44336" stroke="none">
<path d="M7355 12114 c-495 -51 -807 -153 -1445 -475 -252 -126 -405 -210
-1085 -591 -287 -161 -819 -426 -1030 -514 -375 -155 -700 -243 -1014 -274
-150 -15 -412 -12 -548 5 -401 51 -912 250 -1340 521 -261 165 -324 197 -344
177 -12 -12 53 -320 206 -973 18 -80 50 -212 69 -295 29 -126 244 -1031 321
-1355 44 -185 194 -808 450 -1875 70 -291 138 -573 150 -625 12 -52 51 -213
85 -357 l63 -262 161 -115 c513 -364 715 -449 1371 -575 480 -92 592 -100 891
-56 393 57 636 127 1009 292 305 135 518 246 1075 563 989 562 1508 798 2020
919 247 58 320 66 625 66 296 0 374 -9 600 -66 301 -77 667 -231 944 -399 85
-51 407 -266 433 -289 3 -3 57 -215 118 -471 61 -256 144 -600 185 -765 40
-165 132 -547 205 -850 604 -2517 816 -3383 836 -3422 26 -51 53 -56 236 -48
206 8 202 7 193 53 -25 139 -342 1482 -785 3317 -93 385 -191 799 -219 920
-28 121 -129 546 -224 945 -357 1485 -447 1858 -476 1985 -33 144 -241 1016
-406 1700 -150 622 -263 1098 -334 1400 -52 222 -120 508 -258 1079 -34 144
-19 135 -243 143 -174 6 -222 -4 -240 -52 -18 -46 -19 -46 -350 150 -397 235
-828 387 -1275 451 -105 15 -540 27 -630 18z"/>
</g>
</svg>
